<?xml version="1.0" encoding="UTF-8" standalone="no"?>
<svg width="58px" height="51px" viewBox="0 0 58 51" version="1.1" xmlns="http://www.w3.org/2000/svg" xmlns:xlink="http://www.w3.org/1999/xlink">
  <g id="Page-1" stroke="none" stroke-width="1" fill="none" fill-rule="evenodd">
    <g id="Table-(UI-Stack)" transform="translate(-709.000000, -724.000000)" fill="#ABB3B5">
      <g id="Group-+-Top-Level-Navigation-Copy-+-Second-Level-Navigation-+-Fill-10-+-Fill-12-Copy-+-Title-of-Table-Copy-+-Title-of-Table-Copy-2-+-noun_194428_cc" transform="translate(100.000000, 274.000000)">
        <g id="Fill-10-+-Fill-12-Copy-+-Title-of-Table-Copy-+-Title-of-Table-Copy-2-+-noun_194428_cc" transform="translate(450.000000, 450.000000)">
          <g id="Fill-10-+-Fill-12-Copy-+-Title-of-Table-Copy-+-Title-of-Table-Copy-2">
            <g id="icon.empty.table" transform="translate(160.000000, 0.000000)">
              <g id="noun_131293_cc">
                <g id="Group">
                  <path d="M55.7437882,28.6348663 L45.9513644,1.45975599 C45.7967335,1.02611752 45.3835182,0.735294118 44.9222243,0.735294118 L10.955404,0.735294118 C10.4928108,0.735294118 10.0808949,1.02611752 9.92366513,1.45975599 L0.0636715453,28.8283158 C0.0246889665,28.9373745 0.0103953543,29.0516266 0.00649709646,29.163282 C0.00649709646,29.1762652 -3.12638804e-13,48.904219 -3.12638804e-13,48.904219 C-3.12638804e-13,49.5079372 0.489881073,50 1.09541046,50 L54.7822179,50 C55.3864479,50 55.8776284,49.5079372 55.8776284,48.904219 L55.8776284,29.3073954 C55.8997185,28.9932022 55.842544,28.7997527 55.7437882,28.6348663 Z M11.7259597,2.92425957 L44.1516687,2.92425957 L53.2242142,28.1038539 L38.8071571,28.1038539 L17.9787653,28.1038539 L2.65341419,28.1038539 L11.7259597,2.92425957 L11.7259597,2.92425957 Z M37.4869471,30.2941176 C36.4357169,34.6071326 32.788247,37.6270221 28.3988086,37.6270221 C24.0041726,37.6270221 20.3541038,34.6071326 19.3002747,30.2941176 L37.4869471,30.2941176 L37.4869471,30.2941176 Z M53.6868074,47.8084379 L2.19082092,47.8084379 L2.19082092,30.2941176 L17.0457823,30.2941176 C18.1554863,35.8678001 22.7905149,39.8159875 28.3988086,39.8159875 C34.0019046,39.8159875 38.6317355,35.8678001 39.7414396,30.2941176 L53.6868074,30.2941176 L53.6868074,47.8084379 L53.6868074,47.8084379 Z" id="Shape" stroke="#FFFFFF"></path>
                  <path d="M48.8137366,24.4325792 C48.8137366,24.1294683 48.5673797,23.8835973 48.2636698,23.8835973 L6.49769385,23.8835973 C6.19398396,23.8835973 5.94893048,24.1294683 5.94893048,24.4325792 C5.94893048,24.7343891 6.19398396,24.9802602 6.49769385,24.9802602 L48.2636698,24.9802602 C48.5660762,24.9802602 48.8137366,24.7343891 48.8137366,24.4325792 L48.8137366,24.4325792 Z" id="Shape"></path>
                  <path d="M7.59782754,21.6889706 L46.0660094,21.6889706 L47.166143,21.6889706 C47.467246,21.6889706 47.7149064,21.4430995 47.7149064,21.1412896 C47.7149064,20.8394796 47.4685495,20.5936086 47.166143,20.5936086 L46.0660094,20.5936086 L7.59782754,20.5936086 C7.29411765,20.5936086 7.04906417,20.8394796 7.04906417,21.1412896 C7.04906417,21.4430995 7.29411765,21.6889706 7.59782754,21.6889706 L7.59782754,21.6889706 Z" id="Shape"></path>
                  <path d="M8.69665775,18.3989819 L46.0647059,18.3989819 C46.3671123,18.3989819 46.6147727,18.1531109 46.6147727,17.85 C46.6147727,17.54819 46.3684158,17.302319 46.0647059,17.302319 L8.69665775,17.302319 C8.39294786,17.302319 8.14789439,17.54819 8.14789439,17.85 C8.14659091,18.1531109 8.39294786,18.3989819 8.69665775,18.3989819 L8.69665775,18.3989819 Z" id="Shape"></path>
                  <path d="M9.79548797,15.1076923 L44.9658757,15.1076923 C45.2669786,15.1076923 45.514639,14.8618213 45.514639,14.5600113 C45.514639,14.2569005 45.2682821,14.0110294 44.9658757,14.0110294 L9.79548797,14.0110294 C9.49177807,14.0110294 9.24542112,14.2569005 9.24542112,14.5600113 C9.24542112,14.8618213 9.49177807,15.1076923 9.79548797,15.1076923 L9.79548797,15.1076923 Z" id="Shape"></path>
                </g>
              </g>
            </g>
          </g>
        </g>
      </g>
    </g>
  </g>
</svg>
