<?xml version="1.0" encoding="UTF-8" standalone="no"?>
<svg width="22px" height="28px" viewBox="0 0 22 28" version="1.1" xmlns="http://www.w3.org/2000/svg" xmlns:xlink="http://www.w3.org/1999/xlink">
  <g id="Page-1" stroke="none" stroke-width="1" fill="none" fill-rule="evenodd">
    <g id="General-Sheet" transform="translate(-90.000000, -1505.000000)" fill="#EF1B53">
      <g id="Rectangle-34-+-Rectangle-2" transform="translate(90.000000, 1505.000000)">
        <g id="newstore.logo-copy-4">
          <g id="Group-11">
            <g id="Fill-10-+-Fill-12">
              <path d="M18.9516267,6.55083623 L18.9516267,23.1178642 C17.1840054,23.8772575 14.2328002,24.916106 10.9571298,24.916106 L10.9399882,24.916106 C7.64615592,24.9126459 4.63924067,23.8748151 2.87345596,23.1174571 L2.87345596,10.0785247 L12.632105,20.2866764 C13.1447193,20.7963309 15.1835446,18.7566952 14.6711344,18.2474478 C14.6711344,18.2474478 3.86644202,6.90498912 3.33933906,6.37905172 C2.81223611,5.85331786 0,5.93045806 0,6.45843082 L0,24.6716591 C0.982170552,25.5132811 5.87894275,27.7768065 10.9371313,27.782302 L10.9571298,27.782302 C15.9838921,27.782302 20.8243421,25.5206084 21.8250826,24.6732874 L21.8250826,6.55083623 C21.8250826,5.8293006 18.9516267,5.8293006 18.9516267,6.55083623" id="Fill-10"></path>
              <path d="M7.31862969,2.9207691 L14.506453,2.9207691 C15.2880264,2.9207691 15.2880264,0.0568120261 14.506453,0.0568120261 L7.31862969,0.0568120261 C6.5370562,0.0568120261 6.5370562,2.9207691 7.31862969,2.9207691" id="Fill-12"></path>
            </g>
          </g>
        </g>
      </g>
    </g>
  </g>
</svg>
