<?xml version="1.0" encoding="UTF-8" standalone="no"?>
<svg width="150px" height="65px" viewBox="0 0 150 65" version="1.1" xmlns="http://www.w3.org/2000/svg" xmlns:xlink="http://www.w3.org/1999/xlink">
  <g id="Page-1" stroke="none" stroke-width="1" fill="none" fill-rule="evenodd">
    <g id="General-Sheet" transform="translate(-514.000000, -1485.000000)">
      <g id="Imported-Layers" transform="translate(514.000000, 1485.000000)">
        <path d="M10.2493289,59.2208054 L3.85872483,48.5325503 L3.80134228,48.4379195 L0.21442953,48.4379195 L0.21442953,64.1919463 L3.27986577,64.1919463 L3.27986577,53.4312081 L9.67147651,64.0973154 L9.72785235,64.1919463 L13.3137584,64.1919463 L13.3137584,48.4379195 L10.2493289,48.4379195 L10.2493289,59.2208054" id="Fill-1" fill="#2D2D2B"></path>
        <path d="M24.1630872,57.2073826 L28.8191275,57.2073826 L28.8191275,54.4912752 L24.1630872,54.4912752 L24.1630872,51.1540268 L30.3785235,51.1540268 L30.3785235,48.4379195 L21.097651,48.4379195 L21.097651,64.1919463 L30.8446309,64.1919463 L30.8446309,61.4758389 L24.1630872,61.4758389 L24.1630872,57.2073826" id="Fill-2" fill="#2D2D2B"></path>
        <path d="M57.6342282,48.4379195 L53.8399329,59.933557 L50.0446309,48.4379195 L47.1342282,48.4379195 L43.3167785,59.9345638 L39.5214765,48.4379195 L36.1912752,48.4379195 L42.0634228,64.1919463 L44.5459732,64.1919463 L48.5778523,52.8865772 L52.6318792,64.1919463 L55.1144295,64.1919463 L60.9634228,48.4379195 L57.6342282,48.4379195" id="Fill-3" fill="#2D2D2B"></path>
        <path d="M71.5791946,64.0832215 C72.2748322,64.0832215 72.9573826,64.0067114 73.6077181,63.8557047 C74.2479866,63.7067114 74.8218121,63.4620805 75.3120805,63.1268456 C75.795302,62.797651 76.1899329,62.361745 76.4848993,61.8312081 C76.7788591,61.304698 76.9268456,60.6543624 76.9268456,59.9003356 C76.9268456,59.190604 76.8,58.5815436 76.552349,58.0902685 C76.3016779,57.5979866 75.9634228,57.1812081 75.5456376,56.8510067 C75.1197987,56.5147651 74.6285235,56.2258389 74.0869128,55.9922819 C73.5392617,55.7567114 72.9734899,55.5432886 72.404698,55.3580537 C71.7171141,55.1244966 71.1302013,54.9181208 70.6399329,54.7389262 C70.1395973,54.5567114 69.7197987,54.3583893 69.3926174,54.1510067 C69.0493289,53.933557 68.7926174,53.6798658 68.6295302,53.3969799 C68.4654362,53.1120805 68.3818792,52.754698 68.3818792,52.3338926 C68.3818792,51.4751678 68.6979866,50.8369128 69.3211409,50.4362416 C70.1013423,49.9328859 71.2258389,49.7506711 72.7651007,49.9177852 C73.1275168,49.957047 73.4989933,50.0214765 73.8704698,50.1080537 C74.2439597,50.1956376 74.6083893,50.316443 74.9516779,50.4684564 C75.202349,50.5791946 75.4308725,50.7090604 75.6372483,50.8580537 L76.004698,49.5100671 C75.5043624,49.2966443 74.9033557,49.1124161 74.2157718,48.9614094 C72.8244966,48.6553691 71.2228188,48.6100671 69.9261745,48.9251678 C69.3473154,49.0661074 68.8409396,49.2875839 68.4201342,49.5825503 C68.0053691,49.8734899 67.6731544,50.2530201 67.433557,50.7130872 C67.192953,51.1711409 67.0711409,51.7399329 67.0711409,52.4033557 C67.0711409,52.9932886 67.1708054,53.5067114 67.3671141,53.9275168 C67.5644295,54.352349 67.8463087,54.7308725 68.2057047,55.0530201 C68.5691275,55.3802013 69.0191275,55.6671141 69.5416107,55.9057047 C70.0731544,56.1483221 70.6771812,56.3808725 71.3365772,56.5963087 C71.8057047,56.752349 72.2778523,56.9204698 72.7530201,57.0996644 C73.2392617,57.2828859 73.6912752,57.5124161 74.0969799,57.7832215 C74.511745,58.0600671 74.8550336,58.395302 75.1167785,58.7778523 C75.3855705,59.1744966 75.5214765,59.661745 75.5214765,60.2265101 C75.5214765,60.6090604 75.4459732,60.9724832 75.2959732,61.3067114 C75.1409396,61.6479866 74.8932886,61.9439597 74.557047,62.1875839 C74.2278523,62.4261745 73.7989933,62.6124161 73.2795302,62.7422819 C72.7711409,62.8701342 72.1520134,62.9345638 71.4402685,62.9345638 C70.8865772,62.9345638 70.3892617,62.8942953 69.9604027,62.8147651 C69.5325503,62.7362416 69.1348993,62.6315436 68.7795302,62.5036913 C68.4191275,62.3758389 68.0818792,62.2177852 67.7768456,62.033557 C67.5533557,61.897651 67.3288591,61.7557047 67.1053691,61.6067114 L66.7338926,62.9013423 C67.3268456,63.2184564 68.0265101,63.4932886 68.8157718,63.7177852 C69.6644295,63.9604027 70.5946309,64.0832215 71.5791946,64.0832215" id="Fill-4" fill="#2D2D2B"></path>
        <path d="M94.6439597,48.8265101 L83.4614094,48.8265101 L83.4614094,50.0677852 L88.3741611,50.0677852 L88.3741611,63.8033557 L89.7322148,63.8033557 L89.7322148,50.0677852 L94.6439597,50.0677852 L94.6439597,48.8265101" id="Fill-5" fill="#2D2D2B"></path>
        <path d="M112.968121,50.9838926 C112.35302,50.2862416 111.583893,49.7265101 110.682886,49.3208054 C109.780872,48.9151007 108.726846,48.7097315 107.548993,48.7097315 C106.387248,48.7097315 105.341275,48.9151007 104.440268,49.3208054 C103.537248,49.7275168 102.768121,50.2862416 102.154027,50.9838926 C101.536913,51.6825503 101.060738,52.5151007 100.736577,53.4563758 C100.411409,54.4006711 100.246309,55.4255034 100.246309,56.5006711 C100.246309,57.5154362 100.395302,58.4939597 100.691275,59.4100671 C100.984228,60.3201342 101.431208,61.1325503 102.016107,61.8231544 C102.6,62.5127517 103.344966,63.066443 104.230872,63.4721477 C105.116779,63.8778523 106.178859,64.0832215 107.385906,64.0832215 C108.625168,64.0832215 109.722483,63.8657718 110.644631,63.4379195 C111.571812,63.0090604 112.35604,62.4302013 112.979195,61.716443 C113.603356,61.0026846 114.075503,60.1711409 114.384564,59.2449664 C114.694631,58.3147651 114.851678,57.3372483 114.851678,56.3375839 C114.851678,55.3248322 114.691611,54.3432886 114.37349,53.4211409 C114.057383,52.5030201 113.585235,51.6825503 112.968121,50.9838926 L112.968121,50.9838926 Z M112.997315,58.9399329 C112.773826,59.7302013 112.421477,60.4298658 111.950336,61.0218121 C111.474161,61.6187919 110.855034,62.0909396 110.10906,62.4281879 C109.365101,62.7644295 108.465101,62.9345638 107.433221,62.9345638 C105.612081,62.9345638 104.199664,62.3637584 103.235235,61.2372483 C102.276846,60.1197987 101.790604,58.4486577 101.790604,56.2681208 C101.790604,55.3399329 101.895302,54.4771812 102.100671,53.7040268 C102.307047,52.9208054 102.640268,52.2352349 103.090268,51.666443 C103.542282,51.0926174 104.139262,50.6426174 104.865101,50.3285235 C105.584899,50.016443 106.463758,49.8583893 107.47953,49.8583893 C108.479195,49.8583893 109.35906,50.0204698 110.09396,50.3395973 C110.834899,50.661745 111.451007,51.1187919 111.925168,51.6986577 C112.396309,52.2734899 112.753691,52.9701342 112.986242,53.7694631 C113.214765,54.561745 113.330537,55.4496644 113.330537,56.4080537 C113.330537,57.3040268 113.218792,58.1567114 112.997315,58.9399329 L112.997315,58.9399329 Z" id="Fill-6" fill="#2D2D2B"></path>
        <path d="M126.337248,57.2385906 L126.425839,57.2385906 L132.176174,63.8033557 L133.827181,63.8033557 L128.012416,57.1147651 L128.313423,57.0352349 C129.426846,56.7402685 130.260403,56.2197987 130.789933,55.4879195 C131.321477,54.7540268 131.591275,53.9043624 131.591275,52.9620805 C131.591275,52.2855705 131.460403,51.6795302 131.204698,51.1610738 C130.94698,50.6416107 130.581544,50.2016779 130.119463,49.8513423 C129.652349,49.4969799 129.08255,49.2231544 128.426174,49.0379195 C127.762752,48.8516779 127.012752,48.7560403 126.198322,48.7560403 L122.922483,48.7560403 L122.922483,63.8033557 L124.280537,63.8033557 L124.280537,57.1520134 L124.49094,57.1691275 C125.045638,57.2154362 125.666779,57.2385906 126.337248,57.2385906 L126.337248,57.2385906 Z M124.280537,56.0224832 L124.280537,49.8815436 L126.337248,49.8815436 C127.705369,49.8815436 128.643624,50.1412752 129.206376,50.6768456 C129.764094,51.2083893 130.04698,51.9110738 130.04698,52.7647651 C130.04698,53.8379195 129.731879,54.6694631 129.111745,55.2392617 C128.494631,55.8040268 127.577517,56.0899329 126.383557,56.0899329 L125.370805,56.0899329 C125.043624,56.0899329 124.73557,56.0738255 124.452685,56.0416107 L124.280537,56.0224832 L124.280537,56.0224832 Z" id="Fill-7" fill="#2D2D2B"></path>
        <path d="M147.912081,56.4694631 L147.912081,55.2281879 L142.788926,55.2281879 L142.788926,50.0677852 L149.471477,50.0677852 L149.471477,48.8265101 L141.430872,48.8265101 L141.430872,63.8033557 L149.936577,63.8033557 L149.936577,62.5620805 L142.788926,62.5620805 L142.788926,56.4694631 L147.912081,56.4694631" id="Fill-8" fill="#2D2D2B"></path>
        <path d="M84.4489933,7.86946309 L84.4489933,27.2365772 C82.388255,28.1244966 78.9473154,29.3395973 75.1278523,29.3395973 L75.1077181,29.3395973 C71.2671141,29.3345638 67.7607383,28.1214765 65.7020134,27.2365772 L65.7020134,11.9939597 L77.0808725,23.9275168 C77.6778523,24.5224832 80.0557047,22.1385906 79.4577181,21.5436242 C79.4577181,21.5436242 66.8597315,8.28322148 66.2456376,7.66912752 C65.6305369,7.05402685 62.3516779,7.14463087 62.3516779,7.76174497 L62.3516779,29.0536913 C63.4973154,30.0372483 69.2063758,32.6828859 75.104698,32.6899329 L75.1278523,32.6899329 C80.9889262,32.6899329 86.6325503,30.045302 87.7993289,29.054698 L87.7993289,7.86946309 C87.7993289,7.02583893 84.4489933,7.02583893 84.4489933,7.86946309" id="Fill-9" fill="#EF1B53"></path>
        <path d="M70.8845638,3.6261745 L79.266443,3.6261745 C80.1775168,3.6261745 80.1775168,0.277852349 79.266443,0.277852349 L70.8845638,0.277852349 C69.9734899,0.277852349 69.9734899,3.6261745 70.8845638,3.6261745" id="Fill-10" fill="#EF1B53"></path>
      </g>
    </g>
  </g>
</svg>
