<?xml version="1.0" encoding="UTF-8" standalone="no"?>
<svg width="75px" height="56px" viewBox="0 0 75 56" version="1.1" xmlns="http://www.w3.org/2000/svg" xmlns:xlink="http://www.w3.org/1999/xlink">
  <g id="Page-1" stroke="none" stroke-width="1" fill="none" fill-rule="evenodd">
    <g id="HQ-193-Empty-Gallery" transform="translate(-603.000000, -413.000000)" fill="#E9ECEC">
      <g id="Rectangle-937-+-image.placeholder" transform="translate(540.000000, 341.000000)">
        <g id="image.placeholder" transform="translate(63.000000, 72.000000)">
          <path d="M30.6661786,20.4681917 C30.6661786,24.3138883 27.5216595,27.4363272 23.6391296,27.4363272 C19.7691275,27.4363272 16.6120805,24.3150184 16.6120805,20.4681917 C16.6120805,16.6145845 19.7691275,13.4966659 23.6391296,13.4966659 C27.5182428,13.4966659 30.6661786,16.6145845 30.6661786,20.4681917 L30.6661786,20.4681917 Z" id="Shape"></path>
          <path d="M71.6622331,0.484808649 L3.50782998,0.484808649 C3.50782998,0.484808649 0.413422819,0.484808649 0.413422819,3.55978378 L0.413422819,52.7435647 C0.413422819,52.7435647 0.413422819,55.8128894 3.50782998,55.8128894 L71.6622331,55.8128894 C71.6622331,55.8128894 74.7555013,55.8128894 74.7555013,52.7435647 L74.7555013,3.55978378 C74.7555013,3.55978378 74.7555013,0.484808649 71.6622331,0.484808649 L71.6622331,0.484808649 Z M68.5655481,49.6674595 L6.60679276,49.6674595 L6.60679276,6.63362883 L68.5655481,6.63362883 L68.5655481,49.6674595 L68.5655481,49.6674595 Z" id="Shape"></path>
          <path d="M63.6602807,44.4464432 C63.6602807,44.4464432 60.7674598,27.7889153 52.0719138,27.7889153 C43.3809233,27.7889153 40.482408,38.898831 34.6944885,38.898831 C28.8883466,38.898831 28.8883466,36.1154191 23.1004271,36.1154191 C17.3011186,36.1154191 11.5063657,44.4464432 11.5063657,44.4464432 L63.6602807,44.4464432 L63.6602807,44.4464432 L63.6602807,44.4464432 Z" id="Shape"></path>
        </g>
      </g>
    </g>
  </g>
</svg>
