<?xml version="1.0" encoding="UTF-8" standalone="no"?>
<svg width="20px" height="20px" viewBox="0 0 20 20" version="1.1" xmlns="http://www.w3.org/2000/svg" xmlns:xlink="http://www.w3.org/1999/xlink">
  <g id="Page-1" stroke="none" stroke-width="1" fill="none" fill-rule="evenodd">
    <g id="General-Sheet" transform="translate(-404.000000, -1509.000000)" fill="#58676C">
      <path d="M423.896314,1528.39583 L418.264574,1522.76374 C419.606689,1521.30159 420.432606,1519.35754 420.432606,1517.2163 C420.432606,1512.67876 416.753846,1509 412.216303,1509 C407.67876,1509 404,1512.67876 404,1517.2163 C404,1521.75385 407.67876,1525.43261 412.216303,1525.43261 C414.357543,1525.43261 416.301235,1524.60669 417.763737,1523.26457 L423.395834,1528.89631 C423.534082,1529.03456 423.758066,1529.03456 423.896314,1528.89631 C424.034562,1528.75842 424.034562,1528.53408 423.896314,1528.39583 L423.896314,1528.39583 Z M412.216303,1524.71815 C408.073143,1524.71815 404.714461,1521.35982 404.714461,1517.2163 C404.714461,1513.07314 408.073143,1509.71446 412.216303,1509.71446 C416.359463,1509.71446 419.718145,1513.07314 419.718145,1517.2163 C419.718145,1521.35982 416.359463,1524.71815 412.216303,1524.71815 L412.216303,1524.71815 Z" id="Imported-Layers-5"></path>
    </g>
  </g>
</svg>
