<?xml version="1.0" encoding="UTF-8" standalone="no"?>
<svg width="60px" height="51px" viewBox="0 0 60 51" version="1.1" xmlns="http://www.w3.org/2000/svg" xmlns:xlink="http://www.w3.org/1999/xlink">
  <g id="Page-1" stroke="none" stroke-width="1" fill="none" fill-rule="evenodd">
    <g id="General-Sheet" transform="translate(-286.000000, -1493.000000)" fill-opacity="0.5" fill="#58676C">
      <g id="icon.warning" transform="translate(286.000000, 1493.000000)">
        <g id="Group">
          <path d="M28.8072,18.9132 L28.8072,34.4016 C28.8072,35.4504 29.4438,36.048 30.3786,36.048 C31.314,36.048 31.9506,35.4504 31.9506,34.4016 L31.9506,18.9132 C31.9506,17.865 31.314,17.2296 30.3786,17.2296 C29.4438,17.2296 28.8072,17.865 28.8072,18.9132 L28.8072,18.9132 Z" id="Shape"></path>
          <path d="M30.3786,38.7804 C29.2188,38.7804 28.2462,39.753 28.2462,40.9122 C28.2462,42.072 29.2188,43.0452 30.3786,43.0452 C31.5384,43.0452 32.511,42.072 32.511,40.9122 C32.5116,39.753 31.5384,38.7804 30.3786,38.7804 L30.3786,38.7804 Z" id="Shape"></path>
          <path d="M59.7294,48.468 L31.2282,0.9678 C30.9876,0.5658 30.5526,0.3192 30.0828,0.3192 C29.6136,0.3192 29.1786,0.5658 28.9374,0.9678 L0.4362,48.468 C0.1884,48.8814 0.1818,49.395 0.4194,49.8144 C0.6564,50.2332 1.1004,50.4924 1.5822,50.4924 L58.5834,50.4924 C59.0652,50.4924 59.5092,50.2332 59.7462,49.8144 C59.9832,49.395 59.9766,48.882 59.7294,48.468 L59.7294,48.468 Z M3.9414,47.8206 L30.0828,4.2522 L56.2242,47.8206 L3.9414,47.8206 L3.9414,47.8206 Z" id="Shape"></path>
        </g>
      </g>
    </g>
  </g>
</svg>
